<?xml version="1.0" encoding="UTF-8"?>
<svg width="320px" height="568px" viewBox="0 0 716 600" version="1.1" xmlns="http://www.w3.org/2000/svg" xmlns:xlink="http://www.w3.org/1999/xlink">
    <!-- Generator: Sketch 50.2 (55047) - http://www.bohemiancoding.com/sketch -->
    <title>Combined Shape Copy 4</title>
    <desc>Created with Sketch.</desc>
    <defs>
        <linearGradient x1="103.794246%" y1="111.851753%" x2="51.7184723%" y2="36.0934147%" id="linearGradient-1">
            <stop stop-color="#EC00AE" offset="0%"></stop>
            <stop stop-color="#FF0000" offset="47.5247532%"></stop>
            <stop stop-color="#F7941D" offset="100%"></stop>
        </linearGradient>
    </defs>
    <g id="Page-1" stroke="none" stroke-width="1" fill="none" fill-rule="evenodd">
        <g id="Desktop-" fill="url(#linearGradient-1)">
            <path d="M-573.372538,1354.71705 C-573.372538,1343.09475 -563.968374,1333.5856 -552.474395,1333.5856 C-540.980416,1333.5856 -531.576252,1343.09475 -531.576252,1354.71705 L-531.576252,1396.97996 C-531.576252,1408.60226 -540.980416,1418.11141 -552.474395,1418.11141 C-563.968374,1418.11141 -573.372538,1408.60226 -573.372538,1396.97996 L-573.372538,1354.71705 Z M-151.610017,1354.71705 C-151.610017,1343.09475 -142.205853,1333.5856 -130.711874,1333.5856 C-119.217895,1333.5856 -109.813731,1343.09475 -109.813731,1354.71705 L-109.813731,1396.97996 C-109.813731,1408.60226 -119.217895,1418.11141 -130.711874,1418.11141 C-142.205853,1418.11141 -151.610017,1408.60226 -151.610017,1396.97996 L-151.610017,1354.71705 Z M-827,1397.02273 L-827,60 L861,60 L861,1186.13586 C861,1174.53708 851.505,1165.04717 839.9,1165.04717 C828.295,1165.04717 818.8,1174.53708 818.8,1186.13586 L818.8,1228.31323 C818.8,1239.91201 809.305,1249.40192 797.7,1249.40192 C786.095,1249.40192 776.6,1239.91201 776.6,1228.31323 C776.6,1216.71446 767.105,1207.22455 755.5,1207.22455 C743.895,1207.22455 734.4,1216.71446 734.4,1228.31323 L734.4,1270.49061 C734.4,1282.08938 724.905,1291.57929 713.3,1291.57929 C701.695,1291.57929 692.2,1282.08938 692.2,1270.49061 L692.2,1143.95849 C692.2,1132.35971 682.705,1122.8698 671.1,1122.8698 C659.495,1122.8698 650,1132.35971 650,1143.95849 L650,1354.84535 C650,1366.44413 640.505,1375.93404 628.9,1375.93404 C617.295,1375.93404 607.8,1366.44413 607.8,1354.84535 L607.8,1312.66798 C607.8,1301.0692 598.305,1291.57929 586.7,1291.57929 C575.095,1291.57929 565.6,1301.0692 565.6,1312.66798 L565.6,1397.02273 C565.6,1408.6215 556.105,1418.11141 544.5,1418.11141 C532.895,1418.11141 523.4,1408.6215 523.4,1397.02273 L523.4,1228.31323 C523.4,1216.71446 513.905,1207.22455 502.3,1207.22455 C490.695,1207.22455 481.2,1216.71446 481.2,1228.31323 L481.2,1270.49061 C481.2,1282.08938 471.705,1291.57929 460.1,1291.57929 C448.495,1291.57929 439,1282.08938 439,1270.49061 C439,1258.89183 429.505,1249.40192 417.9,1249.40192 C406.295,1249.40192 396.8,1258.89183 396.8,1270.49061 L396.8,1312.66798 C396.8,1324.26676 387.305,1333.75667 375.7,1333.75667 C364.095,1333.75667 354.6,1324.26676 354.6,1312.66798 L354.6,1186.13586 C354.6,1174.53708 345.105,1165.04717 333.5,1165.04717 C321.895,1165.04717 312.4,1174.53708 312.4,1186.13586 L312.4,1270.49061 C312.4,1282.08938 302.905,1291.57929 291.3,1291.57929 C279.695,1291.57929 270.2,1282.08938 270.2,1270.49061 L270.2,1228.31323 C270.2,1216.71446 260.705,1207.22455 249.1,1207.22455 C237.495,1207.22455 228,1216.71446 228,1228.31323 C228,1239.91201 218.505,1249.40192 206.9,1249.40192 C195.295,1249.40192 185.8,1239.91201 185.8,1228.31323 L185.8,1143.95849 C185.8,1132.35971 176.305,1122.8698 164.7,1122.8698 C153.095,1122.8698 143.6,1132.35971 143.6,1143.95849 L143.6,1354.84535 C143.6,1366.44413 134.105,1375.93404 122.5,1375.93404 C110.895,1375.93404 101.4,1366.44413 101.4,1354.84535 L101.4,1312.66798 C101.4,1301.0692 91.905,1291.57929 80.3,1291.57929 C68.695,1291.57929 59.2,1301.0692 59.2,1312.66798 L59.2,1397.02273 C59.2,1408.6215 49.705,1418.11141 38.1,1418.11141 C26.495,1418.11141 17,1408.6215 17,1397.02273 L17,1186.13586 C17,1174.53708 7.505,1165.04717 -4.1,1165.04717 C-15.705,1165.04717 -25.2,1174.53708 -25.2,1186.13586 L-25.2,1228.31323 C-25.2,1239.91201 -34.695,1249.40192 -46.3,1249.40192 C-57.905,1249.40192 -67.4,1239.91201 -67.4,1228.31323 C-67.4,1216.71446 -76.895,1207.22455 -88.5,1207.22455 C-100.105,1207.22455 -109.6,1216.71446 -109.6,1228.31323 L-109.6,1270.49061 C-109.6,1282.08938 -119.095,1291.57929 -130.7,1291.57929 C-142.305,1291.57929 -151.8,1282.08938 -151.8,1270.49061 L-151.8,1143.95849 C-151.8,1132.35971 -161.295,1122.8698 -172.9,1122.8698 C-184.505,1122.8698 -194,1132.35971 -194,1143.95849 L-194,1354.84535 C-194,1366.44413 -203.495,1375.93404 -215.1,1375.93404 C-226.705,1375.93404 -236.2,1366.44413 -236.2,1354.84535 L-236.2,1312.66798 C-236.2,1301.0692 -245.695,1291.57929 -257.3,1291.57929 C-268.905,1291.57929 -278.4,1301.0692 -278.4,1312.66798 L-278.4,1397.02273 C-278.4,1408.6215 -287.895,1418.11141 -299.5,1418.11141 C-311.105,1418.11141 -320.6,1408.6215 -320.6,1397.02273 L-320.6,1228.31323 C-320.6,1216.71446 -330.095,1207.22455 -341.7,1207.22455 C-353.305,1207.22455 -362.8,1216.71446 -362.8,1228.31323 L-362.8,1270.49061 C-362.8,1282.08938 -372.295,1291.57929 -383.9,1291.57929 C-395.505,1291.57929 -405,1282.08938 -405,1270.49061 C-405,1258.89183 -414.495,1249.40192 -426.1,1249.40192 C-437.705,1249.40192 -447.2,1258.89183 -447.2,1270.49061 L-447.2,1354.84535 C-447.2,1366.44413 -456.695,1375.93404 -468.3,1375.93404 C-479.905,1375.93404 -489.4,1366.44413 -489.4,1354.84535 L-489.4,1186.13586 C-489.4,1174.53708 -498.895,1165.04717 -510.5,1165.04717 C-522.105,1165.04717 -531.6,1174.53708 -531.6,1186.13586 L-531.6,1270.49061 C-531.6,1282.08938 -541.095,1291.57929 -552.7,1291.57929 C-564.305,1291.57929 -573.8,1282.08938 -573.8,1270.49061 L-573.8,1228.31323 C-573.8,1216.71446 -583.295,1207.22455 -594.9,1207.22455 C-606.505,1207.22455 -616,1216.71446 -616,1228.31323 C-616,1239.91201 -625.495,1249.40192 -637.1,1249.40192 C-648.705,1249.40192 -658.2,1239.91201 -658.2,1228.31323 L-658.2,1143.95849 C-658.2,1132.35971 -667.695,1122.8698 -679.3,1122.8698 C-690.905,1122.8698 -700.4,1132.35971 -700.4,1143.95849 L-700.4,1354.84535 C-700.4,1366.44413 -709.895,1375.93404 -721.5,1375.93404 C-733.105,1375.93404 -742.6,1366.44413 -742.6,1354.84535 L-742.6,1312.66798 C-742.6,1301.0692 -752.095,1291.57929 -763.7,1291.57929 C-775.305,1291.57929 -784.8,1301.0692 -784.8,1312.66798 L-784.8,1397.02273 C-784.8,1408.6215 -794.295,1418.11141 -805.9,1418.11141 C-817.505,1418.11141 -827,1408.6215 -827,1397.02273 Z M611.1722,1437.10598 C611.1722,1425.61427 620.576365,1416.21196 632.070343,1416.21196 C643.564322,1416.21196 652.968486,1425.61427 652.968486,1437.10598 C652.968486,1448.59769 643.564322,1458 632.070343,1458 C620.576365,1458 611.1722,1448.59769 611.1722,1437.10598 Z M438.287563,1334.53533 C438.287563,1323.04361 447.691728,1313.6413 459.185706,1313.6413 C470.679685,1313.6413 480.083849,1323.04361 480.083849,1334.53533 C480.083849,1346.02704 470.679685,1355.42935 459.185706,1355.42935 C447.691728,1355.42935 438.287563,1346.02704 438.287563,1334.53533 Z M356.594823,1382.97147 C356.594823,1371.47976 365.998987,1362.07745 377.492966,1362.07745 C388.986944,1362.07745 398.391109,1371.47976 398.391109,1382.97147 C398.391109,1394.46318 388.986944,1403.86549 377.492966,1403.86549 C365.998987,1403.86549 356.594823,1394.46318 356.594823,1382.97147 Z M-61.368036,1312.84986 C-61.368036,1301.27109 -51.9638717,1291.79755 -40.4698931,1291.79755 C-28.9759145,1291.79755 -19.5717501,1301.27109 -19.5717501,1312.84986 L-19.5717501,1315.38247 C-19.5717501,1326.96124 -28.9759145,1336.43478 -40.4698931,1336.43478 C-51.9638717,1336.43478 -61.368036,1326.96124 -61.368036,1315.38247 L-61.368036,1312.84986 Z M184.660101,1292.98471 C184.660101,1281.36242 194.064266,1271.85326 205.558244,1271.85326 C217.052223,1271.85326 226.456387,1281.36242 226.456387,1292.98471 L226.456387,1335.24762 C226.456387,1346.86992 217.052223,1356.37908 205.558244,1356.37908 C194.064266,1356.37908 184.660101,1346.86992 184.660101,1335.24762 L184.660101,1292.98471 Z M691.915025,1354.71705 C691.915025,1343.09475 701.31919,1333.5856 712.813168,1333.5856 C724.307147,1333.5856 733.711311,1343.09475 733.711311,1354.71705 L733.711311,1396.97996 C733.711311,1408.60226 724.307147,1418.11141 712.813168,1418.11141 C701.31919,1418.11141 691.915025,1408.60226 691.915025,1396.97996 L691.915025,1354.71705 Z" id="Combined-Shape-Copy-4" transform="translate(17.000000, 759.000000) rotate(-90.000000) translate(-17.000000, -759.000000) "></path>
        </g>
    </g>
</svg>