<?xml version="1.0" encoding="UTF-8"?>
<svg width="670px" height="600px" viewBox="0 0 670 600" version="1.1" xmlns="http://www.w3.org/2000/svg" xmlns:xlink="http://www.w3.org/1999/xlink">
    <!-- Generator: Sketch 50.2 (55047) - http://www.bohemiancoding.com/sketch -->
    <title>Combined Shape Copy 4</title>
    <desc>Created with Sketch.</desc>
    <defs>
        <linearGradient x1="105.253073%" y1="42.7563931%" x2="47.2859893%" y2="103.440182%" id="linearGradient-1">
            <stop stop-color="#EC00AE" offset="0%"></stop>
            <stop stop-color="#FF0000" offset="47.5247532%"></stop>
            <stop stop-color="#F7941D" offset="100%"></stop>
        </linearGradient>
    </defs>
    <g id="Page-1" stroke="none" stroke-width="1" fill="none" fill-rule="evenodd">
        <g id="Desktop-11" transform="translate(-354.000000, 0.000000)" fill="url(#linearGradient-1)">
            <path d="M462.627462,1354.71705 C462.627462,1343.09475 472.031626,1333.5856 483.525605,1333.5856 C495.019584,1333.5856 504.423748,1343.09475 504.423748,1354.71705 L504.423748,1396.97996 C504.423748,1408.60226 495.019584,1418.11141 483.525605,1418.11141 C472.031626,1418.11141 462.627462,1408.60226 462.627462,1396.97996 L462.627462,1354.71705 Z M884.389983,1354.71705 C884.389983,1343.09475 893.794147,1333.5856 905.288126,1333.5856 C916.782105,1333.5856 926.186269,1343.09475 926.186269,1354.71705 L926.186269,1396.97996 C926.186269,1408.60226 916.782105,1418.11141 905.288126,1418.11141 C893.794147,1418.11141 884.389983,1408.60226 884.389983,1396.97996 L884.389983,1354.71705 Z M209,1397.02273 L209,60 L1897,60 L1897,1186.13586 C1897,1174.53708 1887.505,1165.04717 1875.9,1165.04717 C1864.295,1165.04717 1854.8,1174.53708 1854.8,1186.13586 L1854.8,1228.31323 C1854.8,1239.91201 1845.305,1249.40192 1833.7,1249.40192 C1822.095,1249.40192 1812.6,1239.91201 1812.6,1228.31323 C1812.6,1216.71446 1803.105,1207.22455 1791.5,1207.22455 C1779.895,1207.22455 1770.4,1216.71446 1770.4,1228.31323 L1770.4,1270.49061 C1770.4,1282.08938 1760.905,1291.57929 1749.3,1291.57929 C1737.695,1291.57929 1728.2,1282.08938 1728.2,1270.49061 L1728.2,1143.95849 C1728.2,1132.35971 1718.705,1122.8698 1707.1,1122.8698 C1695.495,1122.8698 1686,1132.35971 1686,1143.95849 L1686,1354.84535 C1686,1366.44413 1676.505,1375.93404 1664.9,1375.93404 C1653.295,1375.93404 1643.8,1366.44413 1643.8,1354.84535 L1643.8,1312.66798 C1643.8,1301.0692 1634.305,1291.57929 1622.7,1291.57929 C1611.095,1291.57929 1601.6,1301.0692 1601.6,1312.66798 L1601.6,1397.02273 C1601.6,1408.6215 1592.105,1418.11141 1580.5,1418.11141 C1568.895,1418.11141 1559.4,1408.6215 1559.4,1397.02273 L1559.4,1228.31323 C1559.4,1216.71446 1549.905,1207.22455 1538.3,1207.22455 C1526.695,1207.22455 1517.2,1216.71446 1517.2,1228.31323 L1517.2,1270.49061 C1517.2,1282.08938 1507.705,1291.57929 1496.1,1291.57929 C1484.495,1291.57929 1475,1282.08938 1475,1270.49061 C1475,1258.89183 1465.505,1249.40192 1453.9,1249.40192 C1442.295,1249.40192 1432.8,1258.89183 1432.8,1270.49061 L1432.8,1312.66798 C1432.8,1324.26676 1423.305,1333.75667 1411.7,1333.75667 C1400.095,1333.75667 1390.6,1324.26676 1390.6,1312.66798 L1390.6,1186.13586 C1390.6,1174.53708 1381.105,1165.04717 1369.5,1165.04717 C1357.895,1165.04717 1348.4,1174.53708 1348.4,1186.13586 L1348.4,1270.49061 C1348.4,1282.08938 1338.905,1291.57929 1327.3,1291.57929 C1315.695,1291.57929 1306.2,1282.08938 1306.2,1270.49061 L1306.2,1228.31323 C1306.2,1216.71446 1296.705,1207.22455 1285.1,1207.22455 C1273.495,1207.22455 1264,1216.71446 1264,1228.31323 C1264,1239.91201 1254.505,1249.40192 1242.9,1249.40192 C1231.295,1249.40192 1221.8,1239.91201 1221.8,1228.31323 L1221.8,1143.95849 C1221.8,1132.35971 1212.305,1122.8698 1200.7,1122.8698 C1189.095,1122.8698 1179.6,1132.35971 1179.6,1143.95849 L1179.6,1354.84535 C1179.6,1366.44413 1170.105,1375.93404 1158.5,1375.93404 C1146.895,1375.93404 1137.4,1366.44413 1137.4,1354.84535 L1137.4,1312.66798 C1137.4,1301.0692 1127.905,1291.57929 1116.3,1291.57929 C1104.695,1291.57929 1095.2,1301.0692 1095.2,1312.66798 L1095.2,1397.02273 C1095.2,1408.6215 1085.705,1418.11141 1074.1,1418.11141 C1062.495,1418.11141 1053,1408.6215 1053,1397.02273 L1053,1186.13586 C1053,1174.53708 1043.505,1165.04717 1031.9,1165.04717 C1020.295,1165.04717 1010.8,1174.53708 1010.8,1186.13586 L1010.8,1228.31323 C1010.8,1239.91201 1001.305,1249.40192 989.7,1249.40192 C978.095,1249.40192 968.6,1239.91201 968.6,1228.31323 C968.6,1216.71446 959.105,1207.22455 947.5,1207.22455 C935.895,1207.22455 926.4,1216.71446 926.4,1228.31323 L926.4,1270.49061 C926.4,1282.08938 916.905,1291.57929 905.3,1291.57929 C893.695,1291.57929 884.2,1282.08938 884.2,1270.49061 L884.2,1143.95849 C884.2,1132.35971 874.705,1122.8698 863.1,1122.8698 C851.495,1122.8698 842,1132.35971 842,1143.95849 L842,1354.84535 C842,1366.44413 832.505,1375.93404 820.9,1375.93404 C809.295,1375.93404 799.8,1366.44413 799.8,1354.84535 L799.8,1312.66798 C799.8,1301.0692 790.305,1291.57929 778.7,1291.57929 C767.095,1291.57929 757.6,1301.0692 757.6,1312.66798 L757.6,1397.02273 C757.6,1408.6215 748.105,1418.11141 736.5,1418.11141 C724.895,1418.11141 715.4,1408.6215 715.4,1397.02273 L715.4,1228.31323 C715.4,1216.71446 705.905,1207.22455 694.3,1207.22455 C682.695,1207.22455 673.2,1216.71446 673.2,1228.31323 L673.2,1270.49061 C673.2,1282.08938 663.705,1291.57929 652.1,1291.57929 C640.495,1291.57929 631,1282.08938 631,1270.49061 C631,1258.89183 621.505,1249.40192 609.9,1249.40192 C598.295,1249.40192 588.8,1258.89183 588.8,1270.49061 L588.8,1354.84535 C588.8,1366.44413 579.305,1375.93404 567.7,1375.93404 C556.095,1375.93404 546.6,1366.44413 546.6,1354.84535 L546.6,1186.13586 C546.6,1174.53708 537.105,1165.04717 525.5,1165.04717 C513.895,1165.04717 504.4,1174.53708 504.4,1186.13586 L504.4,1270.49061 C504.4,1282.08938 494.905,1291.57929 483.3,1291.57929 C471.695,1291.57929 462.2,1282.08938 462.2,1270.49061 L462.2,1228.31323 C462.2,1216.71446 452.705,1207.22455 441.1,1207.22455 C429.495,1207.22455 420,1216.71446 420,1228.31323 C420,1239.91201 410.505,1249.40192 398.9,1249.40192 C387.295,1249.40192 377.8,1239.91201 377.8,1228.31323 L377.8,1143.95849 C377.8,1132.35971 368.305,1122.8698 356.7,1122.8698 C345.095,1122.8698 335.6,1132.35971 335.6,1143.95849 L335.6,1354.84535 C335.6,1366.44413 326.105,1375.93404 314.5,1375.93404 C302.895,1375.93404 293.4,1366.44413 293.4,1354.84535 L293.4,1312.66798 C293.4,1301.0692 283.905,1291.57929 272.3,1291.57929 C260.695,1291.57929 251.2,1301.0692 251.2,1312.66798 L251.2,1397.02273 C251.2,1408.6215 241.705,1418.11141 230.1,1418.11141 C218.495,1418.11141 209,1408.6215 209,1397.02273 Z M1647.1722,1437.10598 C1647.1722,1425.61427 1656.57636,1416.21196 1668.07034,1416.21196 C1679.56432,1416.21196 1688.96849,1425.61427 1688.96849,1437.10598 C1688.96849,1448.59769 1679.56432,1458 1668.07034,1458 C1656.57636,1458 1647.1722,1448.59769 1647.1722,1437.10598 Z M1474.28756,1334.53533 C1474.28756,1323.04361 1483.69173,1313.6413 1495.18571,1313.6413 C1506.67968,1313.6413 1516.08385,1323.04361 1516.08385,1334.53533 C1516.08385,1346.02704 1506.67968,1355.42935 1495.18571,1355.42935 C1483.69173,1355.42935 1474.28756,1346.02704 1474.28756,1334.53533 Z M1392.59482,1382.97147 C1392.59482,1371.47976 1401.99899,1362.07745 1413.49297,1362.07745 C1424.98694,1362.07745 1434.39111,1371.47976 1434.39111,1382.97147 C1434.39111,1394.46318 1424.98694,1403.86549 1413.49297,1403.86549 C1401.99899,1403.86549 1392.59482,1394.46318 1392.59482,1382.97147 Z M974.631964,1312.84986 C974.631964,1301.27109 984.036128,1291.79755 995.530107,1291.79755 C1007.02409,1291.79755 1016.42825,1301.27109 1016.42825,1312.84986 L1016.42825,1315.38247 C1016.42825,1326.96124 1007.02409,1336.43478 995.530107,1336.43478 C984.036128,1336.43478 974.631964,1326.96124 974.631964,1315.38247 L974.631964,1312.84986 Z M1220.6601,1292.98471 C1220.6601,1281.36242 1230.06427,1271.85326 1241.55824,1271.85326 C1253.05222,1271.85326 1262.45639,1281.36242 1262.45639,1292.98471 L1262.45639,1335.24762 C1262.45639,1346.86992 1253.05222,1356.37908 1241.55824,1356.37908 C1230.06427,1356.37908 1220.6601,1346.86992 1220.6601,1335.24762 L1220.6601,1292.98471 Z M1727.91503,1354.71705 C1727.91503,1343.09475 1737.31919,1333.5856 1748.81317,1333.5856 C1760.30715,1333.5856 1769.71131,1343.09475 1769.71131,1354.71705 L1769.71131,1396.97996 C1769.71131,1408.60226 1760.30715,1418.11141 1748.81317,1418.11141 C1737.31919,1418.11141 1727.91503,1408.60226 1727.91503,1396.97996 L1727.91503,1354.71705 Z" id="Combined-Shape-Copy-4" transform="translate(1053.000000, 759.000000) scale(-1, 1) rotate(-90.000000) translate(-1053.000000, -759.000000) "></path>
        </g>
    </g>
</svg>