<?xml version="1.0" encoding="UTF-8"?>
<svg width="165px" height="25px" viewBox="0 0 216 31" version="1.1" xmlns="http://www.w3.org/2000/svg" xmlns:xlink="http://www.w3.org/1999/xlink">
    <!-- Generator: Sketch 48.2 (47327) - http://www.bohemiancoding.com/sketch -->
    <title>Page 1</title>
    <desc>Created with Sketch.</desc>
    <defs>
        <polygon id="path-1" points="0.13384 0.473448387 20.9881 0.473448387 20.9881 20.7438677 0.13384 20.7438677"></polygon>
        <polygon id="path-3" points="0 0.52257561 27.88863 0.52257561 27.88863 27.3977951 0 27.3977951"></polygon>
    </defs>
    <g id="Top10SuperBowl-Desktop" stroke="none" stroke-width="1" fill="none" fill-rule="evenodd" transform="translate(-187.000000, -12.000000)">
        <g id="Page-1" transform="translate(187.000000, 12.000000)">
            <path d="M190.272727,5.44284471 L190.272727,4 L186.73982,4 C185.236188,4 184.015849,5.28885689 184.00066,6.88568941 L184,6.88568941 L184,6.90115851 L184,6.9166276 C184.015849,8.51346012 185.236188,9.80231702 186.73982,9.80231702 L187.597623,9.80231702 L187.597623,22.0650907 C187.597623,23.6499699 188.790887,24.9388268 190.272727,24.9683587 L190.272727,25 C191.779001,25 193,23.6998929 193,22.0960289 L193,6.90397107 C193,5.30010715 191.779001,4 190.272727,4 L190.272727,5.44284471 Z" id="Fill-1" fill="#FFFFFF"></path>
            <path d="M157.612719,4.24001871 C157.780321,4.40003119 157.864469,4.60987211 157.864469,4.87024329 C157.864469,5.12991266 157.780321,5.33484092 157.612719,5.48502807 C157.445117,5.63521522 157.233006,5.7103088 156.976387,5.7103088 L150.849525,5.7103088 L150.849525,24.0998129 C150.849525,24.360184 150.761204,24.5749376 150.58317,24.7454772 C150.405832,24.915315 150.188853,25.0002339 149.932235,25.0002339 C149.656143,25.0002339 149.433601,24.915315 149.265999,24.7454772 C149.098397,24.5749376 149.014944,24.360184 149.014944,24.0998129 L149.014944,5.7103088 L142.888082,5.7103088 C142.631463,5.7103088 142.419353,5.63030256 142.251751,5.47029008 C142.083453,5.3102776 142,5.09973487 142,4.8400655 C142,4.60004679 142.083453,4.40003119 142.251751,4.24001871 C142.419353,4.08000624 142.631463,4 142.888082,4 L156.976387,4 C157.233006,4 157.445117,4.08000624 157.612719,4.24001871 M167.791237,21.3999532 C167.140302,22.6203993 166.242484,23.5748596 165.097783,24.2654398 C163.953777,24.9553182 162.681115,25.2999064 161.279795,25.2999064 C159.879171,25.2999064 158.606508,24.9553182 157.461807,24.2654398 C156.317106,23.5748596 155.419288,22.6203993 154.768352,21.3999532 C154.117417,20.180209 153.791949,18.8201029 153.791949,17.3203369 C153.791949,15.819869 154.117417,14.4597629 154.768352,13.2400187 C155.419288,12.0202745 156.317106,11.0601996 157.461807,10.3597941 C158.606508,9.66009046 159.879171,9.30988771 161.279795,9.30988771 C162.681115,9.30988771 163.953777,9.66009046 165.097783,10.3597941 C166.242484,11.0601996 167.140302,12.0202745 167.791237,13.2400187 C168.442868,14.4597629 168.768336,15.819869 168.768336,17.3203369 C168.768336,18.8201029 168.442868,20.180209 167.791237,21.3999532 M166.25222,14.0800842 C165.75915,13.1200094 165.073442,12.3648628 164.195096,11.8153462 C163.317446,11.2651279 162.345215,10.9900187 161.279795,10.9900187 C160.214375,10.9900187 159.247707,11.2651279 158.379098,11.8153462 C157.511184,12.3648628 156.825476,13.1200094 156.32267,14.0800842 C155.819168,15.0401591 155.567418,16.1202433 155.567418,17.3203369 C155.567418,18.500078 155.819168,19.5703369 156.32267,20.5304117 C156.825476,21.4897848 157.511184,22.2449314 158.379098,22.7951497 C159.247707,23.3453681 160.214375,23.6204772 161.279795,23.6204772 C162.345215,23.6204772 163.317446,23.3502807 164.195096,22.8098877 C165.073442,22.2701965 165.75915,21.5199626 166.25222,20.5598877 C166.745985,19.5998129 166.992172,18.5204304 166.992172,17.3203369 C166.992172,16.1202433 166.745985,15.0401591 166.25222,14.0800842 M181.595801,10.5548971 C182.661222,11.2251248 183.495059,12.1550218 184.096618,13.3452901 C184.698873,14.5348565 185,15.8703993 185,17.3498129 C185,18.8502807 184.698873,20.194947 184.096618,21.3852152 C183.495059,22.5747817 182.66609,23.5102932 181.610406,24.1903462 C180.554722,24.8703993 179.375944,25.2100749 178.074073,25.2100749 C176.929372,25.2100749 175.878556,24.9349657 174.921625,24.3854492 C173.964694,23.8352308 173.199706,23.1004367 172.628051,22.1803649 L172.628051,30.1002807 C172.628051,30.3599501 172.543902,30.5754055 172.3763,30.7452433 C172.208698,30.9150811 171.996587,31 171.739969,31 C171.48335,31 171.271239,30.9150811 171.103637,30.7452433 C170.936035,30.5754055 170.851887,30.3599501 170.851887,30.1002807 L170.851887,10.5401591 C170.851887,10.2797879 170.936035,10.0601216 171.103637,9.87975671 C171.271239,9.70009357 171.48335,9.61026201 171.739969,9.61026201 C171.996587,9.61026201 172.208698,9.70009357 172.3763,9.87975671 C172.543902,10.0601216 172.628051,10.2797879 172.628051,10.5401591 L172.628051,12.5803182 C173.140593,11.6398939 173.880545,10.9001871 174.847213,10.3597941 C175.814575,9.82010293 176.879995,9.54990643 178.044169,9.54990643 C179.346735,9.54990643 180.530381,9.88537118 181.595801,10.5548971 M180.663906,22.7347941 C181.482444,22.2049283 182.123643,21.4701341 182.587505,20.5304117 C183.051366,19.5899875 183.282949,18.5302558 183.282949,17.3498129 C183.282949,16.1897224 183.051366,15.1447286 182.587505,14.2148316 C182.123643,13.2849345 181.482444,12.555053 180.663906,12.0251871 C179.844673,11.4953213 178.922515,11.2300374 177.896039,11.2300374 C176.850091,11.2300374 175.913328,11.4904086 175.084359,12.0097473 C174.25539,12.5297879 173.61419,13.2547567 173.160761,14.1853556 C172.706636,15.1152527 172.479921,16.1700717 172.479921,17.3498129 C172.479921,18.5302558 172.706636,19.5899875 173.160761,20.5304117 C173.61419,21.4701341 174.25539,22.2049283 175.084359,22.7347941 C175.913328,23.2653618 176.850091,23.5299439 177.896039,23.5299439 C178.922515,23.5299439 179.844673,23.2653618 180.663906,22.7347941" id="Fill-3" fill="#FFFFFF"></path>
            <g id="Group-7" transform="translate(195.000000, 4.000000)">
                <mask id="mask-2" fill="white">
                    <use xlink:href="#path-1"></use>
                </mask>
                <g id="Clip-6"></g>
                <path d="M10.56104,0.473448387 C16.31994,0.473448387 20.98824,5.01080323 20.98824,10.6083194 C20.98824,16.2058355 16.31994,20.7438677 10.56104,20.7438677 C4.80214,20.7438677 0.13384,16.2058355 0.13384,10.6083194 C0.13384,5.01080323 4.80214,0.473448387 10.56104,0.473448387" id="Fill-5" fill="#FFFFFF" mask="url(#mask-2)"></path>
            </g>
            <path d="M121,1 L121,28" id="Stroke-8" stroke="#FFFFFF" stroke-width="1.826"></path>
            <g id="Group-12">
                <mask id="mask-4" fill="white">
                    <use xlink:href="#path-3"></use>
                </mask>
                <g id="Clip-11"></g>
                <path d="M20.35313,6.33086829 C20.35313,7.53486829 19.34023,8.51077073 18.09143,8.51077073 C16.84193,8.51077073 15.82903,7.53486829 15.82903,6.33086829 C15.82903,5.12686829 16.84193,4.15164878 18.09143,4.15164878 C19.34023,4.15164878 20.35313,5.12686829 20.35313,6.33086829 Z M16.58363,14.4542829 L16.58293,9.60481951 L19.59923,9.60481951 L19.59923,17.9556488 C19.59923,18.7587707 18.92373,19.4089171 18.09143,19.4089171 C17.63643,19.4089171 17.22833,19.2149659 16.95183,18.9083317 L11.30563,13.4722341 L11.30563,18.3155512 L8.28933,18.3155512 L8.28933,9.96403902 C8.28933,9.16091707 8.96483,8.51077073 9.79783,8.51077073 C10.25773,8.51077073 10.67073,8.70950244 10.94723,9.02296585 L16.58363,14.4542829 Z M9.79783,19.4089171 C11.04663,19.4089171 12.05953,20.3848195 12.05953,21.5888195 C12.05953,22.7928195 11.04663,23.768722 9.79783,23.768722 C8.54833,23.768722 7.53543,22.7928195 7.53543,21.5888195 C7.53543,20.3848195 8.54833,19.4089171 9.79783,19.4089171 Z M27.88863,13.9598439 C27.88863,11.1318439 27.68143,8.35028293 27.28243,5.62881951 C27.27613,5.58579512 27.27123,5.54277073 27.26493,5.49974634 C26.92543,3.24881951 25.08303,1.46706341 22.75133,1.12696585 C19.87503,0.728819512 16.93503,0.52257561 13.94463,0.52257561 C10.96473,0.52257561 8.03523,0.727453659 5.16943,1.12423415 C2.81253,1.45272195 0.95123,3.25428293 0.61943,5.52842927 C0.21133,8.28267317 -7e-05,11.0976976 -7e-05,13.9598439 C-7e-05,16.8390634 0.21343,19.670478 0.62643,22.4397463 C0.97363,24.6783805 2.80763,26.4492098 5.12883,26.7913561 C8.00723,27.1908683 10.95073,27.3977951 13.94463,27.3977951 C16.95393,27.3977951 19.91283,27.1881366 22.80663,26.7838439 C25.08023,26.4300878 26.87573,24.7022829 27.25093,22.5135024 C27.67093,19.7210146 27.88863,16.8650146 27.88863,13.9598439 Z" id="Fill-10" fill="#FFFFFF" mask="url(#mask-4)"></path>
            </g>
            <path d="M65.964793,15.3038071 L65.964793,23.5156498 C65.964793,23.8424653 66.215725,24 66.4659695,24 C66.7169015,24 66.967146,23.8424653 66.967146,23.5156498 L66.967146,15.3038071 C66.967146,14.9763007 66.7169015,14.806329 66.4659695,14.806329 C66.215725,14.806329 65.964793,14.9763007 65.964793,15.3038071 Z M53.5941903,15.3038071 L53.5941903,23.4368825 C53.5941903,23.6987494 53.8313725,23.9343605 54.0953667,23.9343605 L57.6971,23.9343605 C58.0270927,23.9343605 58.1982764,23.6856215 58.1982764,23.4368825 C58.1982764,23.1881434 58.0270927,22.9387135 57.6971,22.9387135 L54.5965432,22.9387135 L54.5965432,15.3038071 C54.5965432,14.9763007 54.3462987,14.806329 54.0953667,14.806329 C53.8444348,14.806329 53.5941903,14.9763007 53.5941903,15.3038071 Z M46.8809005,15.3825744 L46.8809005,23.4368825 C46.8809005,23.6987494 47.1180828,23.9343605 47.382077,23.9343605 L51.5111111,23.9343605 C51.8672283,23.9343605 52.0129751,23.6856215 52.0129751,23.4368825 C52.0129751,23.1881434 51.8672283,22.9387135 51.5111111,22.9387135 L47.8832534,22.9387135 L47.8832534,19.7562357 L50.4028855,19.7562357 C50.7328782,19.7562357 50.9047495,19.5081877 50.9047495,19.2587577 C50.9047495,19.0100187 50.7328782,18.7612796 50.4028855,18.7612796 L47.8832534,18.7612796 L47.8832534,15.8800525 L51.5111111,15.8800525 C51.8672283,15.8800525 52.0129751,15.6313135 52.0129751,15.3825744 C52.0129751,15.1338354 51.8672283,14.8850964 51.5111111,14.8850964 L47.382077,14.8850964 C47.1180828,14.8850964 46.8809005,15.1200166 46.8809005,15.3825744 Z M40.589039,15.3825744 C40.589039,15.6313135 40.7602227,15.8800525 41.0902154,15.8800525 L42.541496,15.8800525 L42.541496,23.5156498 C42.541496,23.8424653 42.792428,24 43.0426725,24 C43.2936045,24 43.5438489,23.8424653 43.5438489,23.5156498 L43.5438489,15.8800525 L44.9951295,15.8800525 C45.3251222,15.8800525 45.496306,15.6313135 45.496306,15.3825744 C45.496306,15.1338354 45.3251222,14.8850964 44.9951295,14.8850964 L41.0902154,14.8850964 C40.7602227,14.8850964 40.589039,15.1338354 40.589039,15.3825744 Z M34.0737449,15.316935 L34.0737449,23.5156498 C34.0737449,23.8424653 34.3239893,24 34.5749213,24 C34.8258533,24 35.0760978,23.8424653 35.0760978,23.5156498 L35.0760978,17.1113107 L37.9525345,23.5674705 C38.1505301,24 38.4406488,24 38.6386444,24 C38.9418252,24 39.2058194,23.8555932 39.2058194,23.4237546 L39.2058194,15.3038071 C39.2058194,14.9763007 38.9679496,14.806329 38.7177052,14.806329 C38.4667732,14.806329 38.202779,14.9763007 38.202779,15.3038071 L38.202779,21.7081462 L35.340092,15.2250397 C35.1819705,14.8719685 34.9709126,14.806329 34.6670443,14.806329 C34.3638635,14.806329 34.0737449,14.9631728 34.0737449,15.316935 Z M31,15.3038071 L31,23.5156498 C31,23.8424653 31.250932,24 31.501864,24 C31.7521084,24 32.0030404,23.8424653 32.0030404,23.5156498 L32.0030404,15.3038071 C32.0030404,14.9763007 31.7521084,14.806329 31.501864,14.806329 C31.250932,14.806329 31,14.9763007 31,15.3038071 Z M36.1320746,12.6174256 L36.1320746,4.498169 C36.1320746,4.17066261 35.8948923,4 35.6439603,4 C35.3937158,4 35.1297216,4.17066261 35.1297216,4.498169 L35.1297216,10.9018172 L32.2670346,4.41940164 C32.1082256,4.06563947 31.8978552,4 31.5939869,4 C31.2908061,4 31,4.15753472 31,4.51060596 L31,12.7093208 C31,13.0368272 31.250932,13.193671 31.501864,13.193671 C31.7521084,13.193671 32.0030404,13.0368272 32.0030404,12.7093208 L32.0030404,6.30498169 L34.8787896,12.7618324 C35.0767853,13.193671 35.3669039,13.193671 35.5648995,13.193671 C35.8680804,13.193671 36.1320746,13.0499551 36.1320746,12.6174256 Z M44.1117115,12.7224487 C44.1117115,12.683065 44.0986492,12.6305534 44.085587,12.564914 L41.5130186,4.36689007 C41.4208957,4.11815104 41.1830259,4 40.9059695,4 C40.6426628,4 40.404793,4.11815104 40.3126701,4.36689007 L37.7401017,12.564914 C37.7270395,12.6305534 37.7132898,12.683065 37.7132898,12.7224487 C37.7132898,12.9843156 37.9250351,13.193671 38.2282159,13.193671 C38.4262116,13.193671 38.5973953,13.1024667 38.6895183,12.8537276 L40.9059695,5.78124784 L43.1224207,12.8537276 C43.2145437,13.1024667 43.3994771,13.193671 43.5974728,13.193671 C43.9006536,13.193671 44.1117115,12.9843156 44.1117115,12.7224487 Z M49.016916,4.57624542 C49.016916,4.32750639 48.8450448,4.07876736 48.5157395,4.07876736 L44.610138,4.07876736 C44.2808327,4.07876736 44.1089615,4.32750639 44.1089615,4.57624542 C44.1089615,4.82498445 44.2808327,5.07372349 44.610138,5.07372349 L46.0614185,5.07372349 L46.0614185,12.7093208 C46.0614185,13.0368272 46.3123505,13.193671 46.5632825,13.193671 C46.813527,13.193671 47.064459,13.0368272 47.064459,12.7093208 L47.064459,5.07372349 L48.5157395,5.07372349 C48.8450448,5.07372349 49.016916,4.82498445 49.016916,4.57624542 Z M55.5328976,10.7187176 L55.5328976,4.498169 C55.5328976,4.17066261 55.2819656,4 55.0317211,4 C54.7807892,4 54.5298572,4.17066261 54.5298572,4.498169 L54.5298572,10.7187176 C54.5298572,11.5437021 53.8705592,12.2111518 53.03939,12.2111518 L52.9073929,12.2111518 C52.0762237,12.2111518 51.403176,11.5437021 51.403176,10.7187176 L51.403176,4.498169 C51.403176,4.17066261 51.1529315,4 50.9019995,4 C50.651755,4 50.400823,4.17066261 50.400823,4.498169 L50.400823,10.7187176 C50.400823,12.1068196 51.5221109,13.193671 52.9073929,13.193671 L53.03939,13.193671 C54.4116098,13.193671 55.5328976,12.1068196 55.5328976,10.7187176 Z M61.7319487,6.68499965 C61.7319487,7.50998411 61.1118373,8.17812478 60.2799806,8.17812478 L58.512457,8.17812478 L58.512457,5.07372349 L60.2277318,5.07372349 C61.0582135,5.07372349 61.7319487,5.74186416 61.7319487,6.56684861 L61.7319487,6.68499965 Z M62.7343016,6.68499965 L62.7343016,6.56684861 C62.7343016,5.19187452 61.6130138,4.07876736 60.2277318,4.07876736 L58.0112806,4.07876736 C57.7472864,4.07876736 57.5101041,4.3143785 57.5101041,4.57624542 L57.5101041,12.7093208 C57.5101041,13.0368272 57.7603486,13.193671 58.0112806,13.193671 C58.2622125,13.193671 58.512457,13.0368272 58.512457,12.7093208 L58.512457,9.17308091 L59.8578649,9.17308091 L61.6522004,12.9186762 C61.7580731,13.1287224 61.9292568,13.193671 62.0873784,13.193671 C62.4043089,13.193671 62.6153667,12.9843156 62.6153667,12.7093208 C62.6153667,12.6305534 62.6023045,12.5517861 62.5624304,12.4868376 L60.9269039,9.09431355 C61.9952554,8.77993505 62.7343016,7.8374905 62.7343016,6.68499965 Z M63.7504043,22.9387135 L60.6498475,22.9387135 L60.6498475,15.3038071 C60.6498475,14.9763007 60.399603,14.806329 60.148671,14.806329 C59.897739,14.806329 59.6474946,14.9763007 59.6474946,15.3038071 L59.6474946,23.4368825 C59.6474946,23.6987494 59.8853643,23.9343605 60.148671,23.9343605 L63.7504043,23.9343605 C64.080397,23.9343605 64.2515807,23.6856215 64.2515807,23.4368825 C64.2515807,23.1881434 64.080397,22.9387135 63.7504043,22.9387135 Z M70.1838877,12.7224487 C70.1838877,12.683065 70.1708255,12.6305534 70.1570758,12.564914 L67.5845074,4.36689007 C67.4923844,4.11815104 67.2545146,4 66.9781457,4 C66.7141515,4 66.4762818,4.11815104 66.3841588,4.36689007 L63.8115904,12.564914 C63.7985282,12.6305534 63.785466,12.683065 63.785466,12.7224487 C63.785466,12.9843156 63.9965238,13.193671 64.2997047,13.193671 C64.4977003,13.193671 64.6695715,13.1024667 64.7616945,12.8537276 L66.9781457,5.78124784 L69.1939095,12.8537276 C69.2867199,13.1024667 69.4716534,13.193671 69.6689615,13.193671 C69.9721423,13.193671 70.1838877,12.9843156 70.1838877,12.7224487 Z M71.6227935,14.806329 L71.4907964,14.806329 C70.1055144,14.806329 68.9842266,15.9063083 68.9842266,17.2944103 L68.9842266,21.5243557 C68.9842266,22.9124577 70.1055144,24 71.4907964,24 L71.6227935,24 C73.0080755,24 74.1293634,22.9124577 74.1293634,21.5243557 L74.1293634,19.4943688 C74.1293634,19.2325019 73.8921811,18.9968908 73.6281869,18.9968908 L71.7417284,18.9968908 C71.4117357,18.9968908 71.2405519,19.2456298 71.2405519,19.4943688 C71.2405519,19.7431079 71.4117357,19.9925378 71.7417284,19.9925378 L73.1270104,19.9925378 L73.1270104,21.5243557 C73.1270104,22.3493402 72.4539627,23.0174808 71.6227935,23.0174808 L71.4907964,23.0174808 C70.6596272,23.0174808 69.987267,22.3493402 69.987267,21.5243557 L69.987267,17.2812824 C69.987267,16.4825537 70.6596272,15.8012852 71.4907964,15.8012852 L71.6227935,15.8012852 C72.4800871,15.8012852 72.9819511,16.3512748 73.1270104,17.0850549 C73.1799467,17.3863055 73.4040668,17.5037656 73.6281869,17.5037656 C73.8791189,17.5037656 74.1293634,17.333794 74.1293634,17.0194155 L74.1293634,16.9406481 C73.9581796,15.7100808 72.9022029,14.806329 71.6227935,14.806329 Z M76.3678141,12.6305534 C76.3678141,12.3818144 76.1966304,12.1330754 75.8666376,12.1330754 L72.7667683,12.1330754 L72.7667683,4.498169 C72.7667683,4.17066261 72.5158364,4 72.2655919,4 C72.0146599,4 71.7637279,4.17066261 71.7637279,4.498169 L71.7637279,12.6305534 C71.7637279,12.8924204 72.0015977,13.1287224 72.2655919,13.1287224 L75.8666376,13.1287224 C76.1966304,13.1287224 76.3678141,12.8799834 76.3678141,12.6305534 Z M77.3076059,22.9387135 L77.3076059,19.7562357 L79.827238,19.7562357 C80.1572307,19.7562357 80.3284144,19.5081877 80.3284144,19.2587577 C80.3284144,19.0100187 80.1572307,18.7612796 79.827238,18.7612796 L77.3076059,18.7612796 L77.3076059,15.8800525 L80.9354636,15.8800525 C81.2915807,15.8800525 81.43664,15.6313135 81.43664,15.3825744 C81.43664,15.1338354 81.2915807,14.8850964 80.9354636,14.8850964 L76.8064294,14.8850964 C76.5424352,14.8850964 76.3045655,15.1200166 76.3045655,15.3825744 L76.3045655,23.4368825 C76.3045655,23.6987494 76.5424352,23.9343605 76.8064294,23.9343605 L80.9354636,23.9343605 C81.2915807,23.9343605 81.43664,23.6856215 81.43664,23.4368825 C81.43664,23.1881434 81.2915807,22.9387135 80.9354636,22.9387135 L77.3076059,22.9387135 Z M88.1506173,23.4237546 L88.1506173,15.3038071 C88.1506173,14.9763007 87.9127475,14.806329 87.6618155,14.806329 C87.411571,14.806329 87.1475769,14.9763007 87.1475769,15.3038071 L87.1475769,21.7081462 L84.2848899,15.2250397 C84.1267683,14.8719685 83.9157105,14.806329 83.6118422,14.806329 C83.3086613,14.806329 83.0185427,14.9631728 83.0185427,15.316935 L83.0185427,23.5156498 C83.0185427,23.8424653 83.2687872,24 83.5197192,24 C83.7706512,24 84.0208957,23.8424653 84.0208957,23.5156498 L84.0208957,17.1113107 L86.8973324,23.5674705 C87.095328,24 87.3854466,24 87.5834423,24 C87.8866231,24 88.1506173,23.8555932 88.1506173,23.4237546 Z M95.1554006,21.8912458 L95.1554006,21.7993505 C95.1554006,21.485663 94.9182183,21.3150003 94.6672864,21.3150003 C94.4562285,21.3150003 94.2321084,21.4462793 94.1661099,21.7475299 C94.0210506,22.4674912 93.4270637,23.0174808 92.6749552,23.0174808 L92.5436456,23.0174808 C91.7124764,23.0174808 91.0394287,22.3493402 91.0394287,21.5243557 L91.0394287,17.2812824 C91.0394287,16.4825537 91.7124764,15.8012852 92.5436456,15.8012852 L92.6749552,15.8012852 C93.4270637,15.8012852 94.0210506,16.3512748 94.1661099,17.071927 C94.2321084,17.3731776 94.4431663,17.5037656 94.6672864,17.5037656 C94.9182183,17.5037656 95.1554006,17.333794 95.1554006,17.0194155 L95.1554006,16.9406481 C94.9842169,15.7232087 93.9419898,14.806329 92.6749552,14.806329 L92.5436456,14.806329 C91.1583636,14.806329 90.0370758,15.9194362 90.0370758,17.2812824 L90.0370758,21.5243557 C90.0370758,22.9124577 91.1583636,24 92.5436456,24 L92.6749552,24 C93.9151779,24 94.9842169,23.0962482 95.1554006,21.8912458 Z M102,15.3825744 C102,15.1338354 101.854941,14.8850964 101.498136,14.8850964 L97.3691019,14.8850964 C97.1051077,14.8850964 96.8679254,15.1200166 96.8679254,15.3825744 L96.8679254,23.4368825 C96.8679254,23.6987494 97.1051077,23.9343605 97.3691019,23.9343605 L101.498136,23.9343605 C101.854941,23.9343605 102,23.6856215 102,23.4368825 C102,23.1881434 101.854941,22.9387135 101.498136,22.9387135 L97.8702784,22.9387135 L97.8702784,19.7562357 L100.38991,19.7562357 C100.720591,19.7562357 100.891774,19.5081877 100.891774,19.2587577 C100.891774,19.0100187 100.720591,18.7612796 100.38991,18.7612796 L97.8702784,18.7612796 L97.8702784,15.8800525 L101.498136,15.8800525 C101.854941,15.8800525 102,15.6313135 102,15.3825744 Z" id="Fill-13" fill="#FFFFFF"></path>
        </g>
    </g>
</svg>