<?xml version="1.0" encoding="UTF-8"?>
<svg width="326px" height="583px" viewBox="0 0 326 583" version="1.1" xmlns="http://www.w3.org/2000/svg" xmlns:xlink="http://www.w3.org/1999/xlink">
    <!-- Generator: Sketch 50.2 (55047) - http://www.bohemiancoding.com/sketch -->
    <title>Combined Shape Copy 4</title>
    <desc>Created with Sketch.</desc>
    <defs>
        <linearGradient x1="76.6327568%" y1="107.498431%" x2="15.5578093%" y2="65.6878421%" id="linearGradient-1">
            <stop stop-color="#EC00AE" offset="0%"></stop>
            <stop stop-color="#FF0000" offset="47.5247532%"></stop>
            <stop stop-color="#F7941D" offset="100%"></stop>
        </linearGradient>
    </defs>
    <g id="Page-1" stroke="none" stroke-width="1" fill="none" fill-rule="evenodd">
        <g id="M-00" fill="url(#linearGradient-1)">
            <path d="M-500.248385,623.684982 C-500.248385,616.209337 -494.179362,610.0929 -486.761667,610.0929 C-479.343973,610.0929 -473.27495,616.209337 -473.27495,623.684982 L-473.27495,650.869146 C-473.27495,658.344791 -479.343973,664.461228 -486.761667,664.461228 C-494.179362,664.461228 -500.248385,658.344791 -500.248385,650.869146 L-500.248385,623.684982 Z M-228.828201,595.003555 C-228.828201,587.52791 -222.759178,581.411473 -215.341484,581.411473 C-207.92379,581.411473 -201.854767,587.52791 -201.854767,595.003555 L-201.854767,622.187719 C-201.854767,629.663364 -207.92379,635.779801 -215.341484,635.779801 C-222.759178,635.779801 -228.828201,629.663364 -228.828201,622.187719 L-228.828201,595.003555 Z M-663.353371,650.888125 L-663.353371,-209.646629 L423.170283,-209.646629 L423.170283,515.157091 C423.170283,507.691884 417.058587,501.583988 409.588737,501.583988 C402.118887,501.583988 396.007192,507.691884 396.007192,515.157091 L396.007192,542.303298 C396.007192,549.768505 389.895496,555.876401 382.425646,555.876401 C374.955796,555.876401 368.8441,549.768505 368.8441,542.303298 C368.8441,534.838091 362.732405,528.730194 355.262555,528.730194 C347.792704,528.730194 341.681009,534.838091 341.681009,542.303298 L341.681009,569.449505 C341.681009,576.914711 335.569313,583.022608 328.099463,583.022608 C320.629613,583.022608 314.517918,576.914711 314.517918,569.449505 L314.517918,488.010884 C314.517918,480.545677 308.406222,474.437781 300.936372,474.437781 C293.466522,474.437781 287.354826,480.545677 287.354826,488.010884 L287.354826,623.741918 C287.354826,631.207125 281.243131,637.315021 273.773281,637.315021 C266.30343,637.315021 260.191735,631.207125 260.191735,623.741918 L260.191735,596.595711 C260.191735,589.130504 254.080039,583.022608 246.610189,583.022608 C239.140339,583.022608 233.028644,589.130504 233.028644,596.595711 L233.028644,650.888125 C233.028644,658.353332 226.916948,664.461228 219.447098,664.461228 C211.977248,664.461228 205.865552,658.353332 205.865552,650.888125 L205.865552,542.303298 C205.865552,534.838091 199.753857,500.048767 192.284007,500.048767 C184.814156,500.048767 178.702461,506.156664 178.702461,513.621871 L178.702461,540.768078 C178.702461,548.233284 172.590765,554.341181 165.120915,554.341181 C157.651065,554.341181 151.53937,548.233284 151.53937,540.768078 C151.53937,533.302871 145.427674,481.304691 137.957824,481.304691 C130.487974,481.304691 124.376278,487.412588 124.376278,494.877794 L124.376278,522.024001 C124.376278,529.489208 118.264583,535.597105 110.794733,535.597105 C103.324882,535.597105 97.2131868,529.489208 97.2131868,522.024001 L97.2131868,440.585381 C97.2131868,433.120174 91.1014913,427.012278 83.6316412,427.012278 C76.1617911,427.012278 70.0500955,433.120174 70.0500955,440.585381 L70.0500955,494.877794 C70.0500955,502.343001 63.9384,508.450898 56.4685498,508.450898 C48.9986997,508.450898 42.8870042,502.343001 42.8870042,494.877794 L42.8870042,467.731588 C42.8870042,460.266381 36.7753086,454.158484 29.3054585,454.158484 C21.8356084,454.158484 15.7239128,460.266381 15.7239128,467.731588 C15.7239128,475.196795 9.61221729,481.304691 2.14236717,481.304691 C-5.32748294,481.304691 -11.4391785,475.196795 -11.4391785,467.731588 L-11.4391785,413.439174 C-11.4391785,405.973967 -17.550874,399.866071 -25.0207242,399.866071 C-32.4905743,399.866071 -38.6022698,405.973967 -38.6022698,413.439174 L-38.6022698,549.170208 C-38.6022698,556.635415 -44.7139654,562.743311 -52.1838155,562.743311 C-59.6536656,562.743311 -65.7653612,556.635415 -65.7653612,549.170208 L-65.7653612,522.024001 C-65.7653612,514.558794 -71.8770567,508.450898 -79.3469068,508.450898 C-86.8167569,508.450898 -92.9284525,514.558794 -92.9284525,522.024001 L-92.9284525,530.426132 C-92.9284525,537.891338 -99.040148,543.999235 -106.509998,543.999235 C-113.979848,543.999235 -120.091544,537.891338 -120.091544,530.426132 L-120.091544,486.475664 C-120.091544,479.010457 -126.203239,472.902561 -133.673089,472.902561 C-141.14294,472.902561 -147.254635,479.010457 -147.254635,486.475664 L-147.254635,513.621871 C-147.254635,521.087078 -153.366331,527.194974 -160.836181,527.194974 C-168.306031,527.194974 -174.417727,521.087078 -174.417727,513.621871 C-174.417727,506.156664 -180.529422,500.048767 -187.999272,500.048767 C-195.469122,500.048767 -201.580818,506.156664 -201.580818,513.621871 L-201.580818,540.768078 C-201.580818,548.233284 -207.692513,554.341181 -215.162364,554.341181 C-222.632214,554.341181 -228.743909,548.233284 -228.743909,540.768078 L-228.743909,508.450898 C-228.743909,500.985691 -234.855605,494.877794 -242.325455,494.877794 C-249.795305,494.877794 -255.907001,500.985691 -255.907001,508.450898 L-255.907001,621.561398 C-255.907001,629.026605 -262.018696,635.134501 -269.488546,635.134501 C-276.958396,635.134501 -283.070092,629.026605 -283.070092,621.561398 L-283.070092,609.435402 C-283.070092,601.970195 -289.181787,595.862298 -296.651638,595.862298 C-304.121488,595.862298 -310.233183,601.970195 -310.233183,609.435402 L-310.233183,672.775246 C-310.233183,680.240452 -316.344879,686.348349 -323.814729,686.348349 C-331.284579,686.348349 -337.396275,680.240452 -337.396275,672.775246 L-337.396275,597.438331 C-337.396275,589.973125 -343.50797,583.865228 -350.97782,583.865228 C-358.44767,583.865228 -364.559366,589.973125 -364.559366,597.438331 L-364.559366,624.584538 C-364.559366,632.049745 -370.671061,638.157642 -378.140912,638.157642 C-384.705198,638.157642 -390.220666,633.440891 -391.461465,627.231233 C-391.632637,626.374592 -391.722457,613.959543 -391.722457,613.054542 C-391.722457,605.589336 -397.834153,599.481439 -405.304003,599.481439 C-412.773853,599.481439 -418.885549,605.589336 -418.885549,613.054542 L-418.885549,667.819057 C-418.885549,675.284264 -424.997244,681.39216 -432.467094,681.39216 C-439.936944,681.39216 -446.04864,675.284264 -446.04864,667.819057 L-446.04864,559.23423 C-446.04864,551.769023 -452.160335,545.661127 -459.630186,545.661127 C-467.100036,545.661127 -473.211731,551.769023 -473.211731,559.23423 L-473.211731,569.449505 C-473.211731,576.914711 -479.323427,583.022608 -486.793277,583.022608 C-494.263127,583.022608 -500.374823,576.914711 -500.374823,569.449505 L-500.374823,542.303298 C-500.374823,534.838091 -506.486518,528.730194 -513.956368,528.730194 C-521.426218,528.730194 -527.537914,534.838091 -527.537914,542.303298 C-527.537914,549.768505 -533.649609,555.876401 -541.11946,555.876401 C-548.58931,555.876401 -554.701005,549.768505 -554.701005,542.303298 L-554.701005,488.010884 C-554.701005,480.545677 -560.812701,474.437781 -568.282551,474.437781 C-575.752401,474.437781 -581.864097,480.545677 -581.864097,488.010884 L-581.864097,623.741918 C-581.864097,631.207125 -587.975792,637.315021 -595.445642,637.315021 C-602.915492,637.315021 -609.027188,631.207125 -609.027188,623.741918 L-609.027188,596.595711 C-609.027188,589.130504 -615.138883,583.022608 -622.608734,583.022608 C-630.078584,583.022608 -636.190279,589.130504 -636.190279,596.595711 L-636.190279,650.888125 C-636.190279,658.353332 -642.301975,664.461228 -649.771825,664.461228 C-657.241675,664.461228 -663.353371,658.353332 -663.353371,650.888125 Z M262.172596,676.683566 C262.172596,669.265871 268.241619,663.196848 275.659314,663.196848 C283.077008,663.196848 289.146031,669.265871 289.146031,676.683566 C289.146031,684.10126 283.077008,690.170283 275.659314,690.170283 C268.241619,690.170283 262.172596,684.10126 262.172596,676.683566 Z M150.90718,582.254392 C150.90718,574.836698 156.976202,568.767675 164.393897,568.767675 C171.811591,568.767675 177.880614,574.836698 177.880614,582.254392 C177.880614,589.672087 171.811591,595.74111 164.393897,595.74111 C156.976202,595.74111 150.90718,589.672087 150.90718,582.254392 Z M98.6461505,567.552143 C98.6461505,560.134448 104.715173,554.065426 112.132868,554.065426 C119.550562,554.065426 125.619585,560.134448 125.619585,567.552143 C125.619585,574.969837 119.550562,581.03886 112.132868,581.03886 C104.715173,581.03886 98.6461505,574.969837 98.6461505,567.552143 Z M-170.666733,567.954646 C-170.666733,560.520512 -164.597711,554.438038 -157.180016,554.438038 C-149.762322,554.438038 -143.693299,560.520512 -143.693299,567.954646 L-143.693299,569.580704 C-143.693299,577.014839 -149.762322,583.097312 -157.180016,583.097312 C-164.597711,583.097312 -170.666733,577.014839 -170.666733,569.580704 L-170.666733,567.954646 Z M-12.1978063,509.49604 C-12.1978063,502.020395 -6.1287836,495.903958 1.28891085,495.903958 C8.70660531,495.903958 14.775628,502.020395 14.775628,509.49604 L14.775628,536.680204 C14.775628,544.155849 8.70660531,550.272286 1.28891085,550.272286 C-6.1287836,550.272286 -12.1978063,544.155849 -12.1978063,536.680204 L-12.1978063,509.49604 Z M314.433626,623.684982 C314.433626,616.209337 320.502648,610.0929 327.920343,610.0929 C335.338037,610.0929 341.40706,616.209337 341.40706,623.684982 L341.40706,650.869146 C341.40706,658.344791 335.338037,664.461228 327.920343,664.461228 C320.502648,664.461228 314.433626,658.344791 314.433626,650.869146 L314.433626,623.684982 Z" id="Combined-Shape-Copy-4" transform="translate(-120.091544, 240.261827) rotate(-90.000000) translate(120.091544, -240.261827) "></path>
        </g>
    </g>
</svg>