<?xml version="1.0" encoding="UTF-8"?>
<svg width="334px" height="583px" viewBox="0 0 334 583" version="1.1" xmlns="http://www.w3.org/2000/svg" xmlns:xlink="http://www.w3.org/1999/xlink">
    <!-- Generator: Sketch 50.2 (55047) - http://www.bohemiancoding.com/sketch -->
    <title>Combined Shape Copy 4</title>
    <desc>Created with Sketch.</desc>
    <defs>
        <linearGradient x1="80.3979906%" y1="114.765968%" x2="12.4609198%" y2="56.0500308%" id="linearGradient-1">
            <stop stop-color="#EC00AE" offset="0%"></stop>
            <stop stop-color="#FF0000" offset="47.5247532%"></stop>
            <stop stop-color="#F7941D" offset="100%"></stop>
        </linearGradient>
    </defs>
    <g id="Page-1" stroke="none" stroke-width="1" fill="none" fill-rule="evenodd">
        <g id="M-11" fill="url(#linearGradient-1)">
            <path d="M-492.248385,618.684982 C-492.248385,611.209337 -486.179362,605.0929 -478.761667,605.0929 C-471.343973,605.0929 -465.27495,611.209337 -465.27495,618.684982 L-465.27495,645.869146 C-465.27495,653.344791 -471.343973,659.461228 -478.761667,659.461228 C-486.179362,659.461228 -492.248385,653.344791 -492.248385,645.869146 L-492.248385,618.684982 Z M-220.828201,590.003555 C-220.828201,582.52791 -214.759178,576.411473 -207.341484,576.411473 C-199.92379,576.411473 -193.854767,582.52791 -193.854767,590.003555 L-193.854767,617.187719 C-193.854767,624.663364 -199.92379,630.779801 -207.341484,630.779801 C-214.759178,630.779801 -220.828201,624.663364 -220.828201,617.187719 L-220.828201,590.003555 Z M-655.353371,645.888125 L-655.353371,-214.646629 L431.170283,-214.646629 L431.170283,510.157091 C431.170283,502.691884 425.058587,496.583988 417.588737,496.583988 C410.118887,496.583988 404.007192,502.691884 404.007192,510.157091 L404.007192,537.303298 C404.007192,544.768505 397.895496,550.876401 390.425646,550.876401 C382.955796,550.876401 376.8441,544.768505 376.8441,537.303298 C376.8441,529.838091 370.732405,523.730194 363.262555,523.730194 C355.792704,523.730194 349.681009,529.838091 349.681009,537.303298 L349.681009,564.449505 C349.681009,571.914711 343.569313,578.022608 336.099463,578.022608 C328.629613,578.022608 322.517918,571.914711 322.517918,564.449505 L322.517918,483.010884 C322.517918,475.545677 316.406222,469.437781 308.936372,469.437781 C301.466522,469.437781 295.354826,475.545677 295.354826,483.010884 L295.354826,618.741918 C295.354826,626.207125 289.243131,632.315021 281.773281,632.315021 C274.30343,632.315021 268.191735,626.207125 268.191735,618.741918 L268.191735,591.595711 C268.191735,584.130504 262.080039,578.022608 254.610189,578.022608 C247.140339,578.022608 241.028644,584.130504 241.028644,591.595711 L241.028644,645.888125 C241.028644,653.353332 234.916948,659.461228 227.447098,659.461228 C219.977248,659.461228 213.865552,653.353332 213.865552,645.888125 L213.865552,537.303298 C213.865552,529.838091 207.753857,495.048767 200.284007,495.048767 C192.814156,495.048767 186.702461,501.156664 186.702461,508.621871 L186.702461,535.768078 C186.702461,543.233284 180.590765,549.341181 173.120915,549.341181 C165.651065,549.341181 159.53937,543.233284 159.53937,535.768078 C159.53937,528.302871 153.427674,476.304691 145.957824,476.304691 C138.487974,476.304691 132.376278,482.412588 132.376278,489.877794 L132.376278,517.024001 C132.376278,524.489208 126.264583,530.597105 118.794733,530.597105 C111.324882,530.597105 105.213187,524.489208 105.213187,517.024001 L105.213187,435.585381 C105.213187,428.120174 99.1014913,422.012278 91.6316412,422.012278 C84.1617911,422.012278 78.0500955,428.120174 78.0500955,435.585381 L78.0500955,489.877794 C78.0500955,497.343001 71.9384,503.450898 64.4685498,503.450898 C56.9986997,503.450898 50.8870042,497.343001 50.8870042,489.877794 L50.8870042,462.731588 C50.8870042,455.266381 44.7753086,449.158484 37.3054585,449.158484 C29.8356084,449.158484 23.7239128,455.266381 23.7239128,462.731588 C23.7239128,470.196795 17.6122173,476.304691 10.1423672,476.304691 C2.67251706,476.304691 -3.43917849,470.196795 -3.43917849,462.731588 L-3.43917849,408.439174 C-3.43917849,400.973967 -9.55087404,394.866071 -17.0207242,394.866071 C-24.4905743,394.866071 -30.6022698,400.973967 -30.6022698,408.439174 L-30.6022698,544.170208 C-30.6022698,551.635415 -36.7139654,557.743311 -44.1838155,557.743311 C-51.6536656,557.743311 -57.7653612,551.635415 -57.7653612,544.170208 L-57.7653612,517.024001 C-57.7653612,509.558794 -63.8770567,503.450898 -71.3469068,503.450898 C-78.8167569,503.450898 -84.9284525,509.558794 -84.9284525,517.024001 L-84.9284525,525.426132 C-84.9284525,532.891338 -91.040148,538.999235 -98.5099982,538.999235 C-105.979848,538.999235 -112.091544,532.891338 -112.091544,525.426132 L-112.091544,481.475664 C-112.091544,474.010457 -118.203239,467.902561 -125.673089,467.902561 C-133.14294,467.902561 -139.254635,474.010457 -139.254635,481.475664 L-139.254635,508.621871 C-139.254635,516.087078 -145.366331,522.194974 -152.836181,522.194974 C-160.306031,522.194974 -166.417727,516.087078 -166.417727,508.621871 C-166.417727,501.156664 -172.529422,495.048767 -179.999272,495.048767 C-187.469122,495.048767 -193.580818,501.156664 -193.580818,508.621871 L-193.580818,535.768078 C-193.580818,543.233284 -199.692513,549.341181 -207.162364,549.341181 C-214.632214,549.341181 -220.743909,543.233284 -220.743909,535.768078 L-220.743909,503.450898 C-220.743909,495.985691 -226.855605,489.877794 -234.325455,489.877794 C-241.795305,489.877794 -247.907001,495.985691 -247.907001,503.450898 L-247.907001,616.561398 C-247.907001,624.026605 -254.018696,630.134501 -261.488546,630.134501 C-268.958396,630.134501 -275.070092,624.026605 -275.070092,616.561398 L-275.070092,604.435402 C-275.070092,596.970195 -281.181787,590.862298 -288.651638,590.862298 C-296.121488,590.862298 -302.233183,596.970195 -302.233183,604.435402 L-302.233183,667.775246 C-302.233183,675.240452 -308.344879,681.348349 -315.814729,681.348349 C-323.284579,681.348349 -329.396275,675.240452 -329.396275,667.775246 L-329.396275,592.438331 C-329.396275,584.973125 -335.50797,578.865228 -342.97782,578.865228 C-350.44767,578.865228 -356.559366,584.973125 -356.559366,592.438331 L-356.559366,619.584538 C-356.559366,627.049745 -362.671061,633.157642 -370.140912,633.157642 C-376.705198,633.157642 -382.220666,628.440891 -383.461465,622.231233 C-383.632637,621.374592 -383.722457,608.959543 -383.722457,608.054542 C-383.722457,600.589336 -389.834153,594.481439 -397.304003,594.481439 C-404.773853,594.481439 -410.885549,600.589336 -410.885549,608.054542 L-410.885549,662.819057 C-410.885549,670.284264 -416.997244,676.39216 -424.467094,676.39216 C-431.936944,676.39216 -438.04864,670.284264 -438.04864,662.819057 L-438.04864,554.23423 C-438.04864,546.769023 -444.160335,540.661127 -451.630186,540.661127 C-459.100036,540.661127 -465.211731,546.769023 -465.211731,554.23423 L-465.211731,564.449505 C-465.211731,571.914711 -471.323427,578.022608 -478.793277,578.022608 C-486.263127,578.022608 -492.374823,571.914711 -492.374823,564.449505 L-492.374823,537.303298 C-492.374823,529.838091 -498.486518,523.730194 -505.956368,523.730194 C-513.426218,523.730194 -519.537914,529.838091 -519.537914,537.303298 C-519.537914,544.768505 -525.649609,550.876401 -533.11946,550.876401 C-540.58931,550.876401 -546.701005,544.768505 -546.701005,537.303298 L-546.701005,483.010884 C-546.701005,475.545677 -552.812701,469.437781 -560.282551,469.437781 C-567.752401,469.437781 -573.864097,475.545677 -573.864097,483.010884 L-573.864097,618.741918 C-573.864097,626.207125 -579.975792,632.315021 -587.445642,632.315021 C-594.915492,632.315021 -601.027188,626.207125 -601.027188,618.741918 L-601.027188,591.595711 C-601.027188,584.130504 -607.138883,578.022608 -614.608734,578.022608 C-622.078584,578.022608 -628.190279,584.130504 -628.190279,591.595711 L-628.190279,645.888125 C-628.190279,653.353332 -634.301975,659.461228 -641.771825,659.461228 C-649.241675,659.461228 -655.353371,653.353332 -655.353371,645.888125 Z M270.172596,671.683566 C270.172596,664.265871 276.241619,658.196848 283.659314,658.196848 C291.077008,658.196848 297.146031,664.265871 297.146031,671.683566 C297.146031,679.10126 291.077008,685.170283 283.659314,685.170283 C276.241619,685.170283 270.172596,679.10126 270.172596,671.683566 Z M158.90718,577.254392 C158.90718,569.836698 164.976202,563.767675 172.393897,563.767675 C179.811591,563.767675 185.880614,569.836698 185.880614,577.254392 C185.880614,584.672087 179.811591,590.74111 172.393897,590.74111 C164.976202,590.74111 158.90718,584.672087 158.90718,577.254392 Z M106.646151,562.552143 C106.646151,555.134448 112.715173,549.065426 120.132868,549.065426 C127.550562,549.065426 133.619585,555.134448 133.619585,562.552143 C133.619585,569.969837 127.550562,576.03886 120.132868,576.03886 C112.715173,576.03886 106.646151,569.969837 106.646151,562.552143 Z M-162.666733,562.954646 C-162.666733,555.520512 -156.597711,549.438038 -149.180016,549.438038 C-141.762322,549.438038 -135.693299,555.520512 -135.693299,562.954646 L-135.693299,564.580704 C-135.693299,572.014839 -141.762322,578.097312 -149.180016,578.097312 C-156.597711,578.097312 -162.666733,572.014839 -162.666733,564.580704 L-162.666733,562.954646 Z M-4.19780633,504.49604 C-4.19780633,497.020395 1.8712164,490.903958 9.28891085,490.903958 C16.7066053,490.903958 22.775628,497.020395 22.775628,504.49604 L22.775628,531.680204 C22.775628,539.155849 16.7066053,545.272286 9.28891085,545.272286 C1.8712164,545.272286 -4.19780633,539.155849 -4.19780633,531.680204 L-4.19780633,504.49604 Z M322.433626,618.684982 C322.433626,611.209337 328.502648,605.0929 335.920343,605.0929 C343.338037,605.0929 349.40706,611.209337 349.40706,618.684982 L349.40706,645.869146 C349.40706,653.344791 343.338037,659.461228 335.920343,659.461228 C328.502648,659.461228 322.433626,653.344791 322.433626,645.869146 L322.433626,618.684982 Z" id="Combined-Shape-Copy-4" transform="translate(-112.091544, 235.261827) rotate(-90.000000) translate(112.091544, -235.261827) "></path>
        </g>
    </g>
</svg>