<?xml version="1.0" encoding="UTF-8"?>
<svg width="572px" height="1024px" viewBox="0 0 572 1024" version="1.1" xmlns="http://www.w3.org/2000/svg" xmlns:xlink="http://www.w3.org/1999/xlink">
    <!-- Generator: Sketch 50.2 (55047) - http://www.bohemiancoding.com/sketch -->
    <title>Combined Shape Copy 5</title>
    <desc>Created with Sketch.</desc>
    <defs>
        <linearGradient x1="96.655524%" y1="54.8494997%" x2="21.9762966%" y2="107.07729%" id="linearGradient-1">
            <stop stop-color="#EC00AE" offset="0%"></stop>
            <stop stop-color="#FF0000" offset="47.5247532%"></stop>
            <stop stop-color="#F7941D" offset="100%"></stop>
        </linearGradient>
    </defs>
    <g id="Page-1" stroke="none" stroke-width="1" fill="none" fill-rule="evenodd">
        <g id="Tablet-P-11" transform="translate(-196.000000, 0.000000)" fill="url(#linearGradient-1)">
            <path d="M255.462722,989.396102 C255.462722,976.651507 265.77499,966.224111 278.378872,966.224111 C290.982755,966.224111 301.295023,976.651507 301.295023,989.396102 L301.295023,1035.74008 C301.295023,1048.48468 290.982755,1058.91208 278.378872,1058.91208 C265.77499,1058.91208 255.462722,1048.48468 255.462722,1035.74008 L255.462722,989.396102 Z M-22.6560178,1035.78698 L-22.6560178,-430.343982 L1828.34398,-430.343982 L1828.34398,804.536041 C1828.34398,791.817239 1817.93211,781.410947 1805.20648,781.410947 C1792.48086,781.410947 1782.06898,791.817239 1782.06898,804.536041 L1782.06898,850.786229 C1782.06898,863.505031 1771.65711,873.911323 1758.93148,873.911323 C1746.20586,873.911323 1735.79398,863.505031 1735.79398,850.786229 C1735.79398,838.067427 1725.38211,827.661135 1712.65648,827.661135 C1699.93086,827.661135 1689.51898,838.067427 1689.51898,850.786229 L1689.51898,897.036417 C1689.51898,909.755219 1679.10711,920.161511 1666.38148,920.161511 C1653.65586,920.161511 1643.24398,909.755219 1643.24398,897.036417 L1643.24398,758.285853 C1643.24398,745.567051 1632.83211,735.160759 1620.10648,735.160759 C1607.38086,735.160759 1596.96898,745.567051 1596.96898,758.285853 L1596.96898,989.536793 C1596.96898,1002.2556 1586.55711,1012.66189 1573.83148,1012.66189 C1561.10586,1012.66189 1550.69398,1002.2556 1550.69398,989.536793 L1550.69398,943.286605 C1550.69398,930.567804 1540.28211,920.161511 1527.55648,920.161511 C1514.83086,920.161511 1504.41898,930.567804 1504.41898,943.286605 L1504.41898,1035.78698 C1504.41898,1048.50578 1494.00711,1058.91208 1481.28148,1058.91208 C1468.55586,1058.91208 1458.14398,1048.50578 1458.14398,1035.78698 L1458.14398,850.786229 C1458.14398,838.067427 1447.73211,827.661135 1435.00648,827.661135 C1422.28086,827.661135 1411.86898,838.067427 1411.86898,850.786229 L1411.86898,897.036417 C1411.86898,909.755219 1401.45711,920.161511 1388.73148,920.161511 C1376.00586,920.161511 1365.59398,909.755219 1365.59398,897.036417 C1365.59398,884.317615 1355.18211,873.911323 1342.45648,873.911323 C1329.73086,873.911323 1319.31898,884.317615 1319.31898,897.036417 L1319.31898,943.286605 C1319.31898,956.005407 1308.90711,966.411699 1296.18148,966.411699 C1283.45586,966.411699 1273.04398,956.005407 1273.04398,943.286605 L1273.04398,804.536041 C1273.04398,791.817239 1262.63211,781.410947 1249.90648,781.410947 C1237.18086,781.410947 1226.76898,791.817239 1226.76898,804.536041 L1226.76898,897.036417 C1226.76898,909.755219 1216.35711,920.161511 1203.63148,920.161511 C1190.90586,920.161511 1180.49398,909.755219 1180.49398,897.036417 L1180.49398,850.786229 C1180.49398,838.067427 1170.08211,827.661135 1157.35648,827.661135 C1144.63086,827.661135 1134.21898,838.067427 1134.21898,850.786229 C1134.21898,863.505031 1123.80711,873.911323 1111.08148,873.911323 C1098.35586,873.911323 1087.94398,863.505031 1087.94398,850.786229 L1087.94398,758.285853 C1087.94398,745.567051 1077.53211,735.160759 1064.80648,735.160759 C1052.08086,735.160759 1041.66898,745.567051 1041.66898,758.285853 L1041.66898,943.286605 C1041.66898,956.005407 1031.25711,966.411699 1018.53148,966.411699 C1005.80586,966.411699 995.393982,956.005407 995.393982,943.286605 L995.393982,827.661135 C995.393982,814.942333 984.982107,804.536041 972.256482,804.536041 C959.530857,804.536041 949.118982,814.942333 949.118982,827.661135 L949.118982,873.911323 C949.118982,886.630125 938.707107,897.036417 925.981482,897.036417 C913.255857,897.036417 902.843982,886.630125 902.843982,873.911323 L902.843982,781.410947 C902.843982,768.692145 892.432107,758.285853 879.706482,758.285853 C866.980857,758.285853 856.568982,768.692145 856.568982,781.410947 L856.568982,867.687732 C856.568982,880.406534 846.157107,890.812826 833.431482,890.812826 C820.705857,890.812826 810.293982,880.406534 810.293982,867.687732 C810.293982,865.009782 809.832408,845.532846 808.984848,843.135477 C805.806959,834.146654 797.202721,827.661135 787.156482,827.661135 C774.430857,827.661135 764.018982,838.067427 764.018982,850.786229 L764.018982,911.036417 C764.018982,923.755219 753.607107,934.161511 740.881482,934.161511 C728.155857,934.161511 717.743982,923.755219 717.743982,911.036417 L717.743982,873.911323 C717.743982,861.192521 707.332107,850.786229 694.606482,850.786229 C681.880857,850.786229 671.468982,861.192521 671.468982,873.911323 L671.468982,989.536793 C671.468982,1002.2556 661.057107,1012.66189 648.331482,1012.66189 C635.605857,1012.66189 625.193982,1002.2556 625.193982,989.536793 L625.193982,943.286605 C625.193982,930.567804 614.782107,920.161511 602.056482,920.161511 C589.330857,920.161511 578.918982,930.567804 578.918982,943.286605 L578.918982,1035.78698 C578.918982,1048.50578 568.507107,1058.91208 555.781482,1058.91208 C543.055857,1058.91208 532.643982,1048.50578 532.643982,1035.78698 L532.643982,850.786229 C532.643982,838.067427 522.232107,827.661135 509.506482,827.661135 C496.780857,827.661135 486.368982,838.067427 486.368982,850.786229 L486.368982,897.036417 C486.368982,909.755219 475.957107,920.161511 463.231482,920.161511 C450.505857,920.161511 440.093982,909.755219 440.093982,897.036417 C440.093982,884.317615 429.682107,873.911323 416.956482,873.911323 C404.230857,873.911323 393.818982,884.317615 393.818982,897.036417 L393.818982,989.536793 C393.818982,1002.2556 383.407107,1012.66189 370.681482,1012.66189 C357.955857,1012.66189 347.543982,1002.2556 347.543982,989.536793 L347.543982,804.536041 C347.543982,791.817239 337.132107,781.410947 324.406482,781.410947 C311.680857,781.410947 301.268982,791.817239 301.268982,804.536041 L301.268982,897.036417 C301.268982,909.755219 290.857107,920.161511 278.131482,920.161511 C265.405857,920.161511 254.993982,909.755219 254.993982,897.036417 L254.993982,850.786229 C254.993982,838.067427 244.582107,827.661135 231.856482,827.661135 C219.130857,827.661135 208.718982,838.067427 208.718982,850.786229 C208.718982,863.505031 198.307107,873.911323 185.581482,873.911323 C172.855857,873.911323 162.443982,863.505031 162.443982,850.786229 L162.443982,758.285853 C162.443982,745.567051 152.032107,735.160759 139.306482,735.160759 C126.580857,735.160759 116.168982,745.567051 116.168982,758.285853 L116.168982,989.536793 C116.168982,1002.2556 105.757107,1012.66189 93.0314822,1012.66189 C80.3058572,1012.66189 69.8939822,1002.2556 69.8939822,989.536793 L69.8939822,943.286605 C69.8939822,930.567804 59.4821072,920.161511 46.7564822,920.161511 C34.0308572,920.161511 23.6189822,930.567804 23.6189822,943.286605 L23.6189822,1035.78698 C23.6189822,1048.50578 13.2071072,1058.91208 0.481482218,1058.91208 C-12.2441428,1058.91208 -22.6560178,1048.50578 -22.6560178,1035.78698 Z M902.843982,938.828009 C902.843982,926.083414 913.15625,915.656018 925.760133,915.656018 C938.364016,915.656018 948.676284,926.083414 948.676284,938.828009 L948.676284,985.171991 C948.676284,997.916586 938.364016,1008.34398 925.760133,1008.34398 C913.15625,1008.34398 902.843982,997.916586 902.843982,985.171991 L902.843982,938.828009 Z M1739.5223,921.603194 C1739.5223,909.001797 1749.83457,898.691563 1762.43845,898.691563 C1775.04233,898.691563 1785.3546,909.001797 1785.3546,921.603194 C1785.3546,934.204592 1775.04233,944.514826 1762.43845,944.514826 C1749.83457,944.514826 1739.5223,934.204592 1739.5223,921.603194 Z M1087.34398,913.567649 C1087.34398,900.966252 1097.65625,890.656018 1110.26013,890.656018 C1122.86402,890.656018 1133.17628,900.966252 1133.17628,913.567649 C1133.17628,926.169047 1122.86402,936.479281 1110.26013,936.479281 C1097.65625,936.479281 1087.34398,926.169047 1087.34398,913.567649 Z M1273.23143,1007.37888 C1273.23143,994.777479 1283.5437,984.467245 1296.14758,984.467245 C1308.75147,984.467245 1319.06373,994.777479 1319.06373,1007.37888 C1319.06373,1019.98027 1308.75147,1030.29051 1296.14758,1030.29051 C1283.5437,1030.29051 1273.23143,1019.98027 1273.23143,1007.37888 Z M443.343982,967.741222 C443.343982,955.04436 453.65625,944.656018 466.260133,944.656018 C478.864016,944.656018 489.176284,955.04436 489.176284,967.741222 L489.176284,970.51839 C489.176284,983.215252 478.864016,993.603595 466.260133,993.603595 C453.65625,993.603595 443.343982,983.215252 443.343982,970.51839 L443.343982,967.741222 Z M1554.34398,1065.82801 C1554.34398,1053.08341 1564.65625,1042.65602 1577.26013,1042.65602 C1589.86402,1042.65602 1600.17628,1053.08341 1600.17628,1065.82801 L1600.17628,1112.17199 C1600.17628,1124.91659 1589.86402,1135.34398 1577.26013,1135.34398 C1564.65625,1135.34398 1554.34398,1124.91659 1554.34398,1112.17199 L1554.34398,1065.82801 Z M1642.93149,989.396102 C1642.93149,976.651507 1653.24376,966.224111 1665.84764,966.224111 C1678.45152,966.224111 1688.76379,976.651507 1688.76379,989.396102 L1688.76379,1035.74008 C1688.76379,1048.48468 1678.45152,1058.91208 1665.84764,1058.91208 C1653.24376,1058.91208 1642.93149,1048.48468 1642.93149,1035.74008 L1642.93149,989.396102 Z" id="Combined-Shape-Copy-5" transform="translate(902.843982, 352.500000) scale(-1, 1) rotate(-90.000000) translate(-902.843982, -352.500000) "></path>
        </g>
    </g>
</svg>