<?xml version="1.0" encoding="UTF-8"?>
<svg width="633px" height="1024px" viewBox="0 0 633 1024" version="1.1" xmlns="http://www.w3.org/2000/svg" xmlns:xlink="http://www.w3.org/1999/xlink">
    <!-- Generator: Sketch 50.2 (55047) - http://www.bohemiancoding.com/sketch -->
    <title>Combined Shape Copy 4</title>
    <desc>Created with Sketch.</desc>
    <defs>
        <linearGradient x1="79.8109192%" y1="106.555252%" x2="10.0920193%" y2="43.5807335%" id="linearGradient-1">
            <stop stop-color="#EC00AE" offset="0%"></stop>
            <stop stop-color="#FF0000" offset="47.5247532%"></stop>
            <stop stop-color="#F7941D" offset="100%"></stop>
        </linearGradient>
    </defs>
    <g id="Page-1" stroke="none" stroke-width="1" fill="none" fill-rule="evenodd">
        <g id="Tablet-P-00" fill="url(#linearGradient-1)">
            <path d="M-769.402815,1099.47921 C-769.402815,1086.44701 -758.822758,1075.78429 -745.891577,1075.78429 C-732.960396,1075.78429 -722.380339,1086.44701 -722.380339,1099.47921 L-722.380339,1146.86905 C-722.380339,1159.90126 -732.960396,1170.56397 -745.891577,1170.56397 C-758.822758,1170.56397 -769.402815,1159.90126 -769.402815,1146.86905 L-769.402815,1099.47921 Z M-296.239148,1049.47921 C-296.239148,1036.44701 -285.659091,1025.78429 -272.72791,1025.78429 C-259.796729,1025.78429 -249.216672,1036.44701 -249.216672,1049.47921 L-249.216672,1096.86905 C-249.216672,1109.90126 -259.796729,1120.56397 -272.72791,1120.56397 C-285.659091,1120.56397 -296.239148,1109.90126 -296.239148,1096.86905 L-296.239148,1049.47921 Z M-1053.74185,1146.90214 L-1053.74185,-353.258149 L840.38227,-353.258149 L840.38227,910.283797 C840.38227,897.269788 829.727822,886.621963 816.705719,886.621963 C803.683615,886.621963 793.029167,897.269788 793.029167,910.283797 L793.029167,957.607465 C793.029167,970.621474 782.374719,981.269299 769.352616,981.269299 C756.330512,981.269299 745.676064,970.621474 745.676064,957.607465 C745.676064,944.593456 735.021616,933.945631 721.999513,933.945631 C708.977409,933.945631 698.322961,944.593456 698.322961,957.607465 L698.322961,1004.93113 C698.322961,1017.94514 687.668513,1028.59297 674.64641,1028.59297 C661.624306,1028.59297 650.969858,1017.94514 650.969858,1004.93113 L650.969858,862.960128 C650.969858,849.94612 640.31541,839.298294 627.293307,839.298294 C614.271203,839.298294 603.616755,849.94612 603.616755,862.960128 L603.616755,1099.57847 C603.616755,1112.59248 592.962307,1123.2403 579.940204,1123.2403 C566.9181,1123.2403 556.263652,1112.59248 556.263652,1099.57847 L556.263652,1052.2548 C556.263652,1039.24079 545.609204,1028.59297 532.587101,1028.59297 C519.564997,1028.59297 508.910549,1039.24079 508.910549,1052.2548 L508.910549,1146.90214 C508.910549,1159.91615 498.256101,1170.56397 485.233998,1170.56397 C472.211894,1170.56397 461.557446,1159.91615 461.557446,1146.90214 L461.557446,957.607465 C461.557446,944.593456 450.902998,883.945631 437.880894,883.945631 C424.858791,883.945631 414.204343,894.593456 414.204343,907.607465 L414.204343,954.931133 C414.204343,967.945142 403.549895,978.592968 390.527791,978.592968 C377.505688,978.592968 366.85124,967.945142 366.85124,954.931133 C366.85124,941.917125 356.196792,851.269299 343.174688,851.269299 C330.152585,851.269299 319.498137,861.917125 319.498137,874.931133 L319.498137,922.254802 C319.498137,935.268811 308.843689,945.916636 295.821585,945.916636 C282.799482,945.916636 272.145034,935.268811 272.145034,922.254802 L272.145034,780.283797 C272.145034,767.269788 261.490586,756.621963 248.468482,756.621963 C235.446379,756.621963 224.791931,767.269788 224.791931,780.283797 L224.791931,874.931133 C224.791931,887.945142 214.137483,898.592968 201.115379,898.592968 C188.093276,898.592968 177.438828,887.945142 177.438828,874.931133 L177.438828,827.607465 C177.438828,814.593456 166.78438,803.945631 153.762276,803.945631 C140.740173,803.945631 130.085725,814.593456 130.085725,827.607465 C130.085725,840.621474 119.431277,851.269299 106.409173,851.269299 C93.3870698,851.269299 82.7326216,840.621474 82.7326216,827.607465 L82.7326216,732.960128 C82.7326216,719.94612 72.0781735,709.298294 59.0560701,709.298294 C46.0339668,709.298294 35.3795186,719.94612 35.3795186,732.960128 L35.3795186,969.57847 C35.3795186,982.592479 24.7250704,993.240304 11.7029671,993.240304 C-1.31913626,993.240304 -11.9735844,982.592479 -11.9735844,969.57847 L-11.9735844,922.254802 C-11.9735844,909.240793 -22.6280326,898.592968 -35.650136,898.592968 C-48.6722393,898.592968 -59.3266875,909.240793 -59.3266875,922.254802 L-59.3266875,936.902138 C-59.3266875,949.916147 -69.9811357,960.563973 -83.003239,960.563973 C-96.0253424,960.563973 -106.679791,949.916147 -106.679791,936.902138 L-106.679791,860.283797 C-106.679791,847.269788 -117.334239,836.621963 -130.356342,836.621963 C-143.378445,836.621963 -154.032894,847.269788 -154.032894,860.283797 L-154.032894,907.607465 C-154.032894,920.621474 -164.687342,931.269299 -177.709445,931.269299 C-190.731548,931.269299 -201.385997,920.621474 -201.385997,907.607465 C-201.385997,894.593456 -212.040445,883.945631 -225.062548,883.945631 C-238.084651,883.945631 -248.7391,894.593456 -248.7391,907.607465 L-248.7391,954.931133 C-248.7391,967.945142 -259.393548,978.592968 -272.415651,978.592968 C-285.437755,978.592968 -296.092203,967.945142 -296.092203,954.931133 L-296.092203,812.960128 C-296.092203,799.94612 -306.746651,789.298294 -319.768754,789.298294 C-332.790858,789.298294 -343.445306,799.94612 -343.445306,812.960128 L-343.445306,1099.57847 C-343.445306,1112.59248 -354.099754,1123.2403 -367.121857,1123.2403 C-380.143961,1123.2403 -390.798409,1112.59248 -390.798409,1099.57847 L-390.798409,1052.2548 C-390.798409,1039.24079 -401.452857,1028.59297 -414.47496,1028.59297 C-427.497064,1028.59297 -438.151512,1039.24079 -438.151512,1052.2548 L-438.151512,1146.90214 C-438.151512,1159.91615 -448.80596,1170.56397 -461.828063,1170.56397 C-474.850167,1170.56397 -485.504615,1159.91615 -485.504615,1146.90214 L-485.504615,957.607465 C-485.504615,944.593456 -496.159063,933.945631 -509.181166,933.945631 C-522.20327,933.945631 -532.857718,944.593456 -532.857718,957.607465 L-532.857718,1004.93113 C-532.857718,1017.94514 -543.512166,1028.59297 -556.534269,1028.59297 C-569.556373,1028.59297 -580.210821,1017.94514 -580.210821,1004.93113 C-580.210821,991.917125 -590.865269,981.269299 -603.887373,981.269299 C-616.909476,981.269299 -627.563924,991.917125 -627.563924,1004.93113 L-627.563924,1099.57847 C-627.563924,1112.59248 -638.218372,1123.2403 -651.240476,1123.2403 C-664.262579,1123.2403 -674.917027,1112.59248 -674.917027,1099.57847 L-674.917027,910.283797 C-674.917027,897.269788 -685.571475,886.621963 -698.593579,886.621963 C-711.615682,886.621963 -722.27013,897.269788 -722.27013,910.283797 L-722.27013,1004.93113 C-722.27013,1017.94514 -732.924578,1028.59297 -745.946682,1028.59297 C-758.968785,1028.59297 -769.623233,1017.94514 -769.623233,1004.93113 L-769.623233,957.607465 C-769.623233,944.593456 -780.277681,933.945631 -793.299785,933.945631 C-806.321888,933.945631 -816.976336,944.593456 -816.976336,957.607465 C-816.976336,970.621474 -827.630784,981.269299 -840.652888,981.269299 C-853.674991,981.269299 -864.329439,970.621474 -864.329439,957.607465 L-864.329439,862.960128 C-864.329439,849.94612 -874.983887,839.298294 -888.005991,839.298294 C-901.028094,839.298294 -911.682542,849.94612 -911.682542,862.960128 L-911.682542,1099.57847 C-911.682542,1112.59248 -922.33699,1123.2403 -935.359094,1123.2403 C-948.381197,1123.2403 -959.035645,1112.59248 -959.035645,1099.57847 L-959.035645,1052.2548 C-959.035645,1039.24079 -969.690094,1028.59297 -982.712197,1028.59297 C-995.7343,1028.59297 -1006.38875,1039.24079 -1006.38875,1052.2548 L-1006.38875,1146.90214 C-1006.38875,1159.91615 -1017.0432,1170.56397 -1030.0653,1170.56397 C-1043.0874,1170.56397 -1053.74185,1159.91615 -1053.74185,1146.90214 Z M559.716865,1191.87103 C559.716865,1178.93985 570.296922,1168.35979 583.228103,1168.35979 C596.159284,1168.35979 606.739341,1178.93985 606.739341,1191.87103 C606.739341,1204.80221 596.159284,1215.38227 583.228103,1215.38227 C570.296922,1215.38227 559.716865,1204.80221 559.716865,1191.87103 Z M365.749151,1027.25375 C365.749151,1014.32257 376.329208,1003.74251 389.260389,1003.74251 C402.19157,1003.74251 412.771627,1014.32257 412.771627,1027.25375 C412.771627,1040.18493 402.19157,1050.76498 389.260389,1050.76498 C376.329208,1050.76498 365.749151,1040.18493 365.749151,1027.25375 Z M274.643103,1001.62348 C274.643103,988.692304 285.22316,978.112246 298.154341,978.112246 C311.085522,978.112246 321.665579,988.692304 321.665579,1001.62348 C321.665579,1014.55467 311.085522,1025.13472 298.154341,1025.13472 C285.22316,1025.13472 274.643103,1014.55467 274.643103,1001.62348 Z M-194.846934,1002.32516 C-194.846934,989.365324 -184.266876,978.761818 -171.335695,978.761818 C-158.404514,978.761818 -147.824457,989.365324 -147.824457,1002.32516 L-147.824457,1005.15985 C-147.824457,1018.11969 -158.404514,1028.7232 -171.335695,1028.7232 C-184.266876,1028.7232 -194.846934,1018.11969 -194.846934,1005.15985 L-194.846934,1002.32516 Z M81.4101145,900.414952 C81.4101145,887.382746 91.9901717,876.720032 104.921353,876.720032 C117.852534,876.720032 128.432591,887.382746 128.432591,900.414952 L128.432591,947.804791 C128.432591,960.836997 117.852534,971.499711 104.921353,971.499711 C91.9901717,971.499711 81.4101145,960.836997 81.4101145,947.804791 L81.4101145,900.414952 Z M650.822913,1099.47921 C650.822913,1086.44701 661.40297,1075.78429 674.334151,1075.78429 C687.265332,1075.78429 697.845389,1086.44701 697.845389,1099.47921 L697.845389,1146.86905 C697.845389,1159.90126 687.265332,1170.56397 674.334151,1170.56397 C661.40297,1170.56397 650.822913,1159.90126 650.822913,1146.86905 L650.822913,1099.47921 Z" id="Combined-Shape-Copy-4" transform="translate(-106.679791, 431.062061) rotate(-90.000000) translate(106.679791, -431.062061) "></path>
        </g>
    </g>
</svg>